<svg width="28" height="28" viewBox="0 0 28 28" fill="none" xmlns="http://www.w3.org/2000/svg">
<path fill-rule="evenodd" clip-rule="evenodd" d="M27.9996 27.9999C27.9996 12.5609 15.4388 0 0 0V5.33297C12.4988 5.33297 22.6666 15.5009 22.6666 27.9999H27.9996ZM0.000488281 24C0.000488281 26.209 1.79146 28 4.00043 28C6.20938 28 8.00037 26.209 8.00037 24C8.00037 21.791 6.20938 20 4.00043 20C1.79146 20 0.000488281 21.791 0.000488281 24ZM0 9.33325C10.2928 9.33325 18.6667 17.7072 18.6667 28.0002H13.3338C13.3338 20.6482 7.35188 14.6672 0 14.6672V9.33325Z" fill="white"/>
</svg>
