<svg width="30" height="25" viewBox="0 0 30 25" fill="none" xmlns="http://www.w3.org/2000/svg">
<path d="M14.5292 7.0987L14.5921 8.13676L13.5429 8.00965C9.72377 7.5224 6.38727 5.86997 3.55439 3.09474L2.16943 1.71772L1.8127 2.7346C1.05726 5.00139 1.5399 7.39529 3.11372 9.00534C3.95309 9.89511 3.76423 10.0222 2.31632 9.4926C1.8127 9.32312 1.37203 9.19601 1.33006 9.25956C1.18317 9.40786 1.68679 11.3357 2.08549 12.0983C2.63108 13.1576 3.74325 14.1957 4.96034 14.81L5.98857 15.2973L4.77148 15.3185C3.59636 15.3185 3.55439 15.3396 3.6803 15.7845C4.09998 17.1615 5.75774 18.6233 7.60435 19.2589L8.90538 19.7037L7.77223 20.3817C6.09349 21.3562 4.12097 21.907 2.14844 21.9493C1.20415 21.9705 0.427734 22.0553 0.427734 22.1188C0.427734 22.3307 2.98782 23.517 4.4777 23.9831C8.94735 25.3601 14.2564 24.7669 18.2434 22.4154C21.0763 20.7418 23.9091 17.4158 25.2311 14.1957C25.9446 12.4797 26.6581 9.3443 26.6581 7.84017C26.6581 6.86566 26.721 6.73855 27.8961 5.57338C28.5886 4.89546 29.2391 4.15399 29.365 3.94214C29.5749 3.53963 29.5539 3.53963 28.4837 3.89977C26.7 4.53532 26.4482 4.45058 27.3296 3.49726C27.9801 2.81934 28.7565 1.59061 28.7565 1.23047C28.7565 1.16691 28.4417 1.27284 28.085 1.4635C27.7073 1.67535 26.8679 1.99313 26.2384 2.18379L25.1052 2.54394L24.077 1.84483C23.5104 1.4635 22.713 1.0398 22.2933 0.912694C21.2231 0.616105 19.5864 0.658475 18.6211 0.997434C15.9981 1.95076 14.3403 4.40821 14.5292 7.0987Z" fill="white"/>
</svg>
