<svg width="29" height="26" viewBox="0 0 29 26" fill="none" xmlns="http://www.w3.org/2000/svg">
<path d="M28.3269 13.1506C28.3269 11.4794 26.9754 10.1521 25.3284 10.1521C24.5504 10.1511 23.8021 10.4505 23.2395 10.9879C21.175 9.51303 18.3484 8.55473 15.2026 8.43184L16.5787 1.99252L21.0518 2.95083C21.1013 4.08146 22.0349 4.99097 23.1904 4.99097C24.37 4.99097 25.3284 4.03266 25.3284 2.85242C25.3284 1.67282 24.3701 0.714355 23.1904 0.714355C22.3548 0.714355 21.6171 1.20591 21.2731 1.91876L16.2841 0.861886C16.1366 0.837083 15.9891 0.861886 15.8907 0.935651C15.7678 1.00942 15.6942 1.13214 15.6698 1.27967L14.1456 8.45616C10.9506 8.55473 8.07493 9.51303 5.98599 11.0125C5.42334 10.4751 4.67492 10.1758 3.89688 10.1769C2.22557 10.1769 0.898438 11.5284 0.898438 13.1754C0.898438 14.4041 1.63561 15.4362 2.66816 15.9036C2.61802 16.2041 2.59334 16.5082 2.59439 16.8129C2.59439 21.433 7.977 25.1938 14.6128 25.1938C21.2488 25.1938 26.6314 21.4578 26.6314 16.8129C26.6312 16.5083 26.6065 16.2042 26.5576 15.9036C27.5897 15.4362 28.3269 14.3793 28.3269 13.1506ZM7.7309 15.2886C7.7309 14.109 8.68921 13.1506 9.86945 13.1506C11.0491 13.1506 12.0075 14.1089 12.0075 15.2886C12.0075 16.4684 11.0492 17.4272 9.86945 17.4272C8.68937 17.4513 7.7309 16.4684 7.7309 15.2886ZM19.7004 20.9661C18.2257 22.441 15.4238 22.5394 14.6128 22.5394C13.7772 22.5394 10.9754 22.4162 9.52495 20.9661C9.30413 20.745 9.30413 20.4008 9.52495 20.1797C9.74624 19.9589 10.0903 19.9589 10.3116 20.1797C11.2457 21.1138 13.2119 21.433 14.6128 21.433C16.0139 21.433 18.0044 21.1137 18.9137 20.1797C19.135 19.9589 19.4791 19.9589 19.7004 20.1797C19.8969 20.4008 19.8969 20.745 19.7004 20.9661ZM19.3069 17.4515C18.1271 17.4515 17.1688 16.4932 17.1688 15.3134C17.1688 14.1337 18.1271 13.1754 19.3069 13.1754C20.487 13.1754 21.4453 14.1337 21.4453 15.3134C21.4453 16.4682 20.487 17.4515 19.3069 17.4515Z" fill="white"/>
</svg>
